<svg id="visual" viewBox="0 0 3000 1016" width="3000" height="1016" xmlns="http://www.w3.org/2000/svg" xmlns:xlink="http://www.w3.org/1999/xlink" version="1.1"><rect x="0" y="0" width="3000" height="1016" fill="#dcebf4"></rect><path d="M0 603L71.5 606.8C143 610.7 286 618.3 428.8 629.5C571.7 640.7 714.3 655.3 857.2 650.5C1000 645.7 1143 621.3 1285.8 628.3C1428.7 635.3 1571.3 673.7 1714.2 694.8C1857 716 2000 720 2142.8 713.8C2285.7 707.7 2428.3 691.3 2571.2 689.3C2714 687.3 2857 699.7 2928.5 705.8L3000 712L3000 1017L2928.5 1017C2857 1017 2714 1017 2571.2 1017C2428.3 1017 2285.7 1017 2142.8 1017C2000 1017 1857 1017 1714.2 1017C1571.3 1017 1428.7 1017 1285.8 1017C1143 1017 1000 1017 857.2 1017C714.3 1017 571.7 1017 428.8 1017C286 1017 143 1017 71.5 1017L0 1017Z" fill="#d1dfe8"></path><path d="M0 722L71.5 715.5C143 709 286 696 428.8 705.2C571.7 714.3 714.3 745.7 857.2 756.2C1000 766.7 1143 756.3 1285.8 753C1428.7 749.7 1571.3 753.3 1714.2 744.2C1857 735 2000 713 2142.8 713.8C2285.7 714.7 2428.3 738.3 2571.2 738.7C2714 739 2857 716 2928.5 704.5L3000 693L3000 1017L2928.5 1017C2857 1017 2714 1017 2571.2 1017C2428.3 1017 2285.7 1017 2142.8 1017C2000 1017 1857 1017 1714.2 1017C1571.3 1017 1428.7 1017 1285.8 1017C1143 1017 1000 1017 857.2 1017C714.3 1017 571.7 1017 428.8 1017C286 1017 143 1017 71.5 1017L0 1017Z" fill="#c9d7df"></path><path d="M0 752L71.5 754.3C143 756.7 286 761.3 428.8 765.5C571.7 769.7 714.3 773.3 857.2 771.5C1000 769.7 1143 762.3 1285.8 760.7C1428.7 759 1571.3 763 1714.2 775.2C1857 787.3 2000 807.7 2142.8 801C2285.7 794.3 2428.3 760.7 2571.2 760.3C2714 760 2857 793 2928.5 809.5L3000 826L3000 1017L2928.5 1017C2857 1017 2714 1017 2571.2 1017C2428.3 1017 2285.7 1017 2142.8 1017C2000 1017 1857 1017 1714.2 1017C1571.3 1017 1428.7 1017 1285.8 1017C1143 1017 1000 1017 857.2 1017C714.3 1017 571.7 1017 428.8 1017C286 1017 143 1017 71.5 1017L0 1017Z" fill="#c1ced6"></path><path d="M0 818L71.5 823.2C143 828.3 286 838.7 428.8 834.7C571.7 830.7 714.3 812.3 857.2 811.8C1000 811.3 1143 828.7 1285.8 831.8C1428.7 835 1571.3 824 1714.2 824.2C1857 824.3 2000 835.7 2142.8 831.5C2285.7 827.3 2428.3 807.7 2571.2 796.3C2714 785 2857 782 2928.5 780.5L3000 779L3000 1017L2928.5 1017C2857 1017 2714 1017 2571.2 1017C2428.3 1017 2285.7 1017 2142.8 1017C2000 1017 1857 1017 1714.2 1017C1571.3 1017 1428.7 1017 1285.8 1017C1143 1017 1000 1017 857.2 1017C714.3 1017 571.7 1017 428.8 1017C286 1017 143 1017 71.5 1017L0 1017Z" fill="#b9c6ce"></path><path d="M0 850L71.5 849.2C143 848.3 286 846.7 428.8 855.5C571.7 864.3 714.3 883.7 857.2 898.3C1000 913 1143 923 1285.8 924.8C1428.7 926.7 1571.3 920.3 1714.2 909C1857 897.7 2000 881.3 2142.8 870.3C2285.7 859.3 2428.3 853.7 2571.2 862C2714 870.3 2857 892.7 2928.5 903.8L3000 915L3000 1017L2928.5 1017C2857 1017 2714 1017 2571.2 1017C2428.3 1017 2285.7 1017 2142.8 1017C2000 1017 1857 1017 1714.2 1017C1571.3 1017 1428.7 1017 1285.8 1017C1143 1017 1000 1017 857.2 1017C714.3 1017 571.7 1017 428.8 1017C286 1017 143 1017 71.5 1017L0 1017Z" fill="#b2bec5"></path><path d="M0 918L71.5 920.5C143 923 286 928 428.8 928.7C571.7 929.3 714.3 925.7 857.2 922.3C1000 919 1143 916 1285.8 923.5C1428.7 931 1571.3 949 1714.2 949C1857 949 2000 931 2142.8 922.5C2285.7 914 2428.3 915 2571.2 918.3C2714 921.7 2857 927.3 2928.5 930.2L3000 933L3000 1017L2928.5 1017C2857 1017 2714 1017 2571.2 1017C2428.3 1017 2285.7 1017 2142.8 1017C2000 1017 1857 1017 1714.2 1017C1571.3 1017 1428.7 1017 1285.8 1017C1143 1017 1000 1017 857.2 1017C714.3 1017 571.7 1017 428.8 1017C286 1017 143 1017 71.5 1017L0 1017Z" fill="#aab6bd"></path></svg>